<mxfile host="65bd71144e">
    <diagram id="Irv_bbiouHEBpZ2B2Jt7" name="Page-1">
        <mxGraphModel dx="272" dy="550" grid="1" gridSize="10" guides="1" tooltips="1" connect="1" arrows="1" fold="1" page="1" pageScale="1" pageWidth="827" pageHeight="1169" math="0" shadow="0">
            <root>
                <mxCell id="0"/>
                <mxCell id="1" parent="0"/>
                <mxCell id="ta5v3G1cMSPn4KrArI0O-5" value="&lt;b&gt;Taken&lt;/b&gt;" style="swimlane;fontStyle=4;align=center;verticalAlign=top;childLayout=stackLayout;horizontal=1;startSize=30;horizontalStack=0;resizeParent=1;resizeParentMax=0;resizeLast=0;collapsible=0;marginBottom=0;html=1;strokeColor=default;" parent="1" vertex="1">
                    <mxGeometry x="414" y="255" width="300" height="330" as="geometry"/>
                </mxCell>
                <mxCell id="ta5v3G1cMSPn4KrArI0O-6" value="-taak: String" style="text;html=1;strokeColor=none;fillColor=none;align=left;verticalAlign=middle;spacingLeft=4;spacingRight=4;overflow=hidden;rotatable=0;points=[[0,0.5],[1,0.5]];portConstraint=eastwest;" parent="ta5v3G1cMSPn4KrArI0O-5" vertex="1">
                    <mxGeometry y="30" width="300" height="20" as="geometry"/>
                </mxCell>
                <mxCell id="ta5v3G1cMSPn4KrArI0O-7" value="-tijdDuur: int" style="text;html=1;strokeColor=none;fillColor=none;align=left;verticalAlign=middle;spacingLeft=4;spacingRight=4;overflow=hidden;rotatable=0;points=[[0,0.5],[1,0.5]];portConstraint=eastwest;" parent="ta5v3G1cMSPn4KrArI0O-5" vertex="1">
                    <mxGeometry y="50" width="300" height="20" as="geometry"/>
                </mxCell>
                <mxCell id="amLeTSEaKvmxCKlGvPzw-5" value="+gekozenTaken: ArrayList&amp;lt;Taken&amp;gt;&lt;span style=&quot;white-space: pre&quot;&gt;&#9;&lt;/span&gt;" style="text;html=1;strokeColor=none;fillColor=none;align=left;verticalAlign=middle;spacingLeft=4;spacingRight=4;overflow=hidden;rotatable=0;points=[[0,0.5],[1,0.5]];portConstraint=eastwest;" parent="ta5v3G1cMSPn4KrArI0O-5" vertex="1">
                    <mxGeometry y="70" width="300" height="20" as="geometry"/>
                </mxCell>
                <mxCell id="ta5v3G1cMSPn4KrArI0O-67" value="+taken: Arraylist&amp;lt;Taken&amp;gt;" style="text;html=1;strokeColor=none;fillColor=none;align=left;verticalAlign=middle;spacingLeft=4;spacingRight=4;overflow=hidden;rotatable=0;points=[[0,0.5],[1,0.5]];portConstraint=eastwest;" parent="ta5v3G1cMSPn4KrArI0O-5" vertex="1">
                    <mxGeometry y="90" width="300" height="20" as="geometry"/>
                </mxCell>
                <mxCell id="ta5v3G1cMSPn4KrArI0O-10" value="" style="line;strokeWidth=1;fillColor=none;align=left;verticalAlign=middle;spacingTop=-1;spacingLeft=3;spacingRight=3;rotatable=0;labelPosition=right;points=[];portConstraint=eastwest;" parent="ta5v3G1cMSPn4KrArI0O-5" vertex="1">
                    <mxGeometry y="110" width="300" height="8" as="geometry"/>
                </mxCell>
                <mxCell id="ta5v3G1cMSPn4KrArI0O-69" value="+Taken(taak: String, tijdDuur: int)" style="text;html=1;strokeColor=none;fillColor=none;align=left;verticalAlign=middle;spacingLeft=4;spacingRight=4;overflow=hidden;rotatable=0;points=[[0,0.5],[1,0.5]];portConstraint=eastwest;" parent="ta5v3G1cMSPn4KrArI0O-5" vertex="1">
                    <mxGeometry y="118" width="300" height="22" as="geometry"/>
                </mxCell>
                <mxCell id="ta5v3G1cMSPn4KrArI0O-11" value="+getTaak(): String&lt;span style=&quot;white-space: pre&quot;&gt;&#9;&lt;/span&gt;" style="text;html=1;strokeColor=none;fillColor=none;align=left;verticalAlign=middle;spacingLeft=4;spacingRight=4;overflow=hidden;rotatable=0;points=[[0,0.5],[1,0.5]];portConstraint=eastwest;" parent="ta5v3G1cMSPn4KrArI0O-5" vertex="1">
                    <mxGeometry y="140" width="300" height="20" as="geometry"/>
                </mxCell>
                <mxCell id="ta5v3G1cMSPn4KrArI0O-12" value="+getTijdDuur(): int" style="text;html=1;strokeColor=none;fillColor=none;align=left;verticalAlign=middle;spacingLeft=4;spacingRight=4;overflow=hidden;rotatable=0;points=[[0,0.5],[1,0.5]];portConstraint=eastwest;" parent="ta5v3G1cMSPn4KrArI0O-5" vertex="1">
                    <mxGeometry y="160" width="300" height="20" as="geometry"/>
                </mxCell>
                <mxCell id="dEqsap9X3xDFd9PiGFJk-1" value="&lt;u&gt;+maakNieuweTaak(scanner: IScanner)&lt;/u&gt;" style="text;html=1;strokeColor=none;fillColor=none;align=left;verticalAlign=middle;spacingLeft=4;spacingRight=4;overflow=hidden;rotatable=0;points=[[0,0.5],[1,0.5]];portConstraint=eastwest;" parent="ta5v3G1cMSPn4KrArI0O-5" vertex="1">
                    <mxGeometry y="180" width="300" height="20" as="geometry"/>
                </mxCell>
                <mxCell id="dEqsap9X3xDFd9PiGFJk-2" value="&lt;u&gt;+printTaken()&lt;/u&gt;" style="text;html=1;strokeColor=none;fillColor=none;align=left;verticalAlign=middle;spacingLeft=4;spacingRight=4;overflow=hidden;rotatable=0;points=[[0,0.5],[1,0.5]];portConstraint=eastwest;" parent="ta5v3G1cMSPn4KrArI0O-5" vertex="1">
                    <mxGeometry y="200" width="300" height="20" as="geometry"/>
                </mxCell>
                <mxCell id="dEqsap9X3xDFd9PiGFJk-3" value="&lt;u&gt;+taakSelecteren(scanner: IScanner)&lt;/u&gt;" style="text;html=1;strokeColor=none;fillColor=none;align=left;verticalAlign=middle;spacingLeft=4;spacingRight=4;overflow=hidden;rotatable=0;points=[[0,0.5],[1,0.5]];portConstraint=eastwest;" parent="ta5v3G1cMSPn4KrArI0O-5" vertex="1">
                    <mxGeometry y="220" width="300" height="20" as="geometry"/>
                </mxCell>
                <mxCell id="dEqsap9X3xDFd9PiGFJk-4" value="&lt;u&gt;+bevestigingAanmaak(scanner: IScanner): boolean&lt;/u&gt;" style="text;html=1;strokeColor=none;fillColor=none;align=left;verticalAlign=middle;spacingLeft=4;spacingRight=4;overflow=hidden;rotatable=0;points=[[0,0.5],[1,0.5]];portConstraint=eastwest;" parent="ta5v3G1cMSPn4KrArI0O-5" vertex="1">
                    <mxGeometry y="240" width="300" height="20" as="geometry"/>
                </mxCell>
                <mxCell id="dEqsap9X3xDFd9PiGFJk-5" value="&lt;u&gt;+kiesTaak(scanner: IScanner,&lt;br&gt;&amp;nbsp;geselecteerdGezinslid: String): String&lt;/u&gt;" style="text;html=1;strokeColor=none;fillColor=none;align=left;verticalAlign=middle;spacingLeft=4;spacingRight=4;overflow=hidden;rotatable=0;points=[[0,0.5],[1,0.5]];portConstraint=eastwest;" parent="ta5v3G1cMSPn4KrArI0O-5" vertex="1">
                    <mxGeometry y="260" width="300" height="40" as="geometry"/>
                </mxCell>
                <mxCell id="dEqsap9X3xDFd9PiGFJk-6" value="&lt;u&gt;+checkTaak(scanner: IScanner): String&lt;/u&gt;" style="text;html=1;strokeColor=none;fillColor=none;align=left;verticalAlign=middle;spacingLeft=4;spacingRight=4;overflow=hidden;rotatable=0;points=[[0,0.5],[1,0.5]];portConstraint=eastwest;" parent="ta5v3G1cMSPn4KrArI0O-5" vertex="1">
                    <mxGeometry y="300" width="300" height="30" as="geometry"/>
                </mxCell>
                <mxCell id="ta5v3G1cMSPn4KrArI0O-29" value="&lt;b&gt;Gezin&lt;/b&gt;" style="swimlane;fontStyle=0;align=center;verticalAlign=top;childLayout=stackLayout;horizontal=1;startSize=30;horizontalStack=0;resizeParent=1;resizeParentMax=0;resizeLast=0;collapsible=0;marginBottom=0;html=1;" parent="1" vertex="1">
                    <mxGeometry x="280" y="770" width="320" height="340" as="geometry"/>
                </mxCell>
                <mxCell id="ta5v3G1cMSPn4KrArI0O-30" value="#naam: String" style="text;html=1;strokeColor=none;fillColor=none;align=left;verticalAlign=middle;spacingLeft=4;spacingRight=4;overflow=hidden;rotatable=0;points=[[0,0.5],[1,0.5]];portConstraint=eastwest;" parent="ta5v3G1cMSPn4KrArI0O-29" vertex="1">
                    <mxGeometry y="30" width="320" height="20" as="geometry"/>
                </mxCell>
                <mxCell id="ta5v3G1cMSPn4KrArI0O-31" value="#beschikbareTijd: int" style="text;html=1;strokeColor=none;fillColor=none;align=left;verticalAlign=middle;spacingLeft=4;spacingRight=4;overflow=hidden;rotatable=0;points=[[0,0.5],[1,0.5]];portConstraint=eastwest;" parent="ta5v3G1cMSPn4KrArI0O-29" vertex="1">
                    <mxGeometry y="50" width="320" height="20" as="geometry"/>
                </mxCell>
                <mxCell id="dEqsap9X3xDFd9PiGFJk-9" value="#gezinsverhouding: String" style="text;html=1;strokeColor=none;fillColor=none;align=left;verticalAlign=middle;spacingLeft=4;spacingRight=4;overflow=hidden;rotatable=0;points=[[0,0.5],[1,0.5]];portConstraint=eastwest;" parent="ta5v3G1cMSPn4KrArI0O-29" vertex="1">
                    <mxGeometry y="70" width="320" height="20" as="geometry"/>
                </mxCell>
                <mxCell id="amLeTSEaKvmxCKlGvPzw-1" value="+gezin: Arraylist&amp;lt;Gezin&amp;gt;" style="text;html=1;strokeColor=none;fillColor=none;align=left;verticalAlign=middle;spacingLeft=4;spacingRight=4;overflow=hidden;rotatable=0;points=[[0,0.5],[1,0.5]];portConstraint=eastwest;" parent="ta5v3G1cMSPn4KrArI0O-29" vertex="1">
                    <mxGeometry y="90" width="320" height="20" as="geometry"/>
                </mxCell>
                <mxCell id="dEqsap9X3xDFd9PiGFJk-10" value="+gezin: gekozenGezinslid&amp;lt;String&amp;gt;" style="text;html=1;strokeColor=none;fillColor=none;align=left;verticalAlign=middle;spacingLeft=4;spacingRight=4;overflow=hidden;rotatable=0;points=[[0,0.5],[1,0.5]];portConstraint=eastwest;" parent="ta5v3G1cMSPn4KrArI0O-29" vertex="1">
                    <mxGeometry y="110" width="320" height="20" as="geometry"/>
                </mxCell>
                <mxCell id="ta5v3G1cMSPn4KrArI0O-34" value="" style="line;strokeWidth=1;fillColor=none;align=left;verticalAlign=middle;spacingTop=-1;spacingLeft=3;spacingRight=3;rotatable=0;labelPosition=right;points=[];portConstraint=eastwest;" parent="ta5v3G1cMSPn4KrArI0O-29" vertex="1">
                    <mxGeometry y="130" width="320" height="8" as="geometry"/>
                </mxCell>
                <mxCell id="ta5v3G1cMSPn4KrArI0O-35" value="+Gezin(naam: String, beschikbareTijd: int, &lt;br&gt;gezinsverhouding: String)" style="text;html=1;strokeColor=none;fillColor=none;align=left;verticalAlign=middle;spacingLeft=4;spacingRight=4;overflow=hidden;rotatable=0;points=[[0,0.5],[1,0.5]];portConstraint=eastwest;" parent="ta5v3G1cMSPn4KrArI0O-29" vertex="1">
                    <mxGeometry y="138" width="320" height="42" as="geometry"/>
                </mxCell>
                <mxCell id="dEqsap9X3xDFd9PiGFJk-11" value="+getNaam(): String" style="text;html=1;strokeColor=none;fillColor=none;align=left;verticalAlign=middle;spacingLeft=4;spacingRight=4;overflow=hidden;rotatable=0;points=[[0,0.5],[1,0.5]];portConstraint=eastwest;" parent="ta5v3G1cMSPn4KrArI0O-29" vertex="1">
                    <mxGeometry y="180" width="320" height="20" as="geometry"/>
                </mxCell>
                <mxCell id="ta5v3G1cMSPn4KrArI0O-36" value="+getBeschikbareTijd(): int" style="text;html=1;strokeColor=none;fillColor=none;align=left;verticalAlign=middle;spacingLeft=4;spacingRight=4;overflow=hidden;rotatable=0;points=[[0,0.5],[1,0.5]];portConstraint=eastwest;" parent="ta5v3G1cMSPn4KrArI0O-29" vertex="1">
                    <mxGeometry y="200" width="320" height="20" as="geometry"/>
                </mxCell>
                <mxCell id="dEqsap9X3xDFd9PiGFJk-12" value="+setBeschikbareTijd(tijd: int)" style="text;html=1;strokeColor=none;fillColor=none;align=left;verticalAlign=middle;spacingLeft=4;spacingRight=4;overflow=hidden;rotatable=0;points=[[0,0.5],[1,0.5]];portConstraint=eastwest;" parent="ta5v3G1cMSPn4KrArI0O-29" vertex="1">
                    <mxGeometry y="220" width="320" height="20" as="geometry"/>
                </mxCell>
                <mxCell id="dEqsap9X3xDFd9PiGFJk-14" value="+getGezinsverhouding(): String" style="text;html=1;strokeColor=none;fillColor=none;align=left;verticalAlign=middle;spacingLeft=4;spacingRight=4;overflow=hidden;rotatable=0;points=[[0,0.5],[1,0.5]];portConstraint=eastwest;" parent="ta5v3G1cMSPn4KrArI0O-29" vertex="1">
                    <mxGeometry y="240" width="320" height="20" as="geometry"/>
                </mxCell>
                <mxCell id="dEqsap9X3xDFd9PiGFJk-15" value="&lt;u&gt;+printGezin()&lt;/u&gt;" style="text;html=1;strokeColor=none;fillColor=none;align=left;verticalAlign=middle;spacingLeft=4;spacingRight=4;overflow=hidden;rotatable=0;points=[[0,0.5],[1,0.5]];portConstraint=eastwest;" parent="ta5v3G1cMSPn4KrArI0O-29" vertex="1">
                    <mxGeometry y="260" width="320" height="20" as="geometry"/>
                </mxCell>
                <mxCell id="dEqsap9X3xDFd9PiGFJk-19" value="&lt;u&gt;+kiesGezinslid(scanner: IScanner): String&lt;/u&gt;" style="text;html=1;strokeColor=none;fillColor=none;align=left;verticalAlign=middle;spacingLeft=4;spacingRight=4;overflow=hidden;rotatable=0;points=[[0,0.5],[1,0.5]];portConstraint=eastwest;" parent="ta5v3G1cMSPn4KrArI0O-29" vertex="1">
                    <mxGeometry y="280" width="320" height="20" as="geometry"/>
                </mxCell>
                <mxCell id="dEqsap9X3xDFd9PiGFJk-21" value="&lt;u&gt;+maakNieuwGezinslid(scanner: IScanner)&lt;/u&gt;" style="text;html=1;strokeColor=none;fillColor=none;align=left;verticalAlign=middle;spacingLeft=4;spacingRight=4;overflow=hidden;rotatable=0;points=[[0,0.5],[1,0.5]];portConstraint=eastwest;" parent="ta5v3G1cMSPn4KrArI0O-29" vertex="1">
                    <mxGeometry y="300" width="320" height="20" as="geometry"/>
                </mxCell>
                <mxCell id="dEqsap9X3xDFd9PiGFJk-22" value="&lt;u&gt;+bepaalVerhouding(input: String): String&lt;/u&gt;" style="text;html=1;strokeColor=none;fillColor=none;align=left;verticalAlign=middle;spacingLeft=4;spacingRight=4;overflow=hidden;rotatable=0;points=[[0,0.5],[1,0.5]];portConstraint=eastwest;" parent="ta5v3G1cMSPn4KrArI0O-29" vertex="1">
                    <mxGeometry y="320" width="320" height="20" as="geometry"/>
                </mxCell>
                <mxCell id="ta5v3G1cMSPn4KrArI0O-45" value="&lt;b&gt;Kind&lt;/b&gt;" style="swimlane;fontStyle=0;align=center;verticalAlign=top;childLayout=stackLayout;horizontal=1;startSize=30;horizontalStack=0;resizeParent=1;resizeParentMax=0;resizeLast=0;collapsible=0;marginBottom=0;html=1;" parent="1" vertex="1">
                    <mxGeometry x="680" y="830" width="260" height="80" as="geometry"/>
                </mxCell>
                <mxCell id="ta5v3G1cMSPn4KrArI0O-50" value="" style="line;strokeWidth=1;fillColor=none;align=left;verticalAlign=middle;spacingTop=-1;spacingLeft=3;spacingRight=3;rotatable=0;labelPosition=right;points=[];portConstraint=eastwest;" parent="ta5v3G1cMSPn4KrArI0O-45" vertex="1">
                    <mxGeometry y="30" width="260" height="8" as="geometry"/>
                </mxCell>
                <mxCell id="amLeTSEaKvmxCKlGvPzw-2" value="+kind(naam: String, &lt;br&gt;beschikbareTijd: int, gezinsverhouding: String)" style="text;html=1;strokeColor=none;fillColor=none;align=left;verticalAlign=middle;spacingLeft=4;spacingRight=4;overflow=hidden;rotatable=0;points=[[0,0.5],[1,0.5]];portConstraint=eastwest;" parent="ta5v3G1cMSPn4KrArI0O-45" vertex="1">
                    <mxGeometry y="38" width="260" height="42" as="geometry"/>
                </mxCell>
                <mxCell id="ta5v3G1cMSPn4KrArI0O-53" value="&lt;b&gt;Ouder&lt;/b&gt;" style="swimlane;fontStyle=0;align=center;verticalAlign=top;childLayout=stackLayout;horizontal=1;startSize=30;horizontalStack=0;resizeParent=1;resizeParentMax=0;resizeLast=0;collapsible=0;marginBottom=0;html=1;" parent="1" vertex="1">
                    <mxGeometry x="690" y="1020" width="260" height="80" as="geometry"/>
                </mxCell>
                <mxCell id="ta5v3G1cMSPn4KrArI0O-58" value="" style="line;strokeWidth=1;fillColor=none;align=left;verticalAlign=middle;spacingTop=-1;spacingLeft=3;spacingRight=3;rotatable=0;labelPosition=right;points=[];portConstraint=eastwest;" parent="ta5v3G1cMSPn4KrArI0O-53" vertex="1">
                    <mxGeometry y="30" width="260" height="8" as="geometry"/>
                </mxCell>
                <mxCell id="amLeTSEaKvmxCKlGvPzw-3" value="&lt;span style=&quot;color: rgb(0 , 0 , 0) ; font-family: &amp;#34;helvetica&amp;#34; ; font-size: 12px ; font-style: normal ; font-weight: 400 ; letter-spacing: normal ; text-align: left ; text-indent: 0px ; text-transform: none ; word-spacing: 0px ; background-color: rgb(248 , 249 , 250) ; display: inline ; float: none&quot;&gt;+Ouder(naam: String,&lt;/span&gt;&lt;br style=&quot;color: rgb(0 , 0 , 0) ; font-family: &amp;#34;helvetica&amp;#34; ; font-size: 12px ; font-style: normal ; font-weight: 400 ; letter-spacing: normal ; text-align: left ; text-indent: 0px ; text-transform: none ; word-spacing: 0px ; background-color: rgb(248 , 249 , 250)&quot;&gt;&lt;span style=&quot;color: rgb(0 , 0 , 0) ; font-family: &amp;#34;helvetica&amp;#34; ; font-size: 12px ; font-style: normal ; font-weight: 400 ; letter-spacing: normal ; text-align: left ; text-indent: 0px ; text-transform: none ; word-spacing: 0px ; background-color: rgb(248 , 249 , 250) ; display: inline ; float: none&quot;&gt;beschikbareTijd: int, gezinsverhouding: String)&lt;/span&gt;" style="text;html=1;strokeColor=none;fillColor=none;align=left;verticalAlign=middle;spacingLeft=4;spacingRight=4;overflow=hidden;rotatable=0;points=[[0,0.5],[1,0.5]];portConstraint=eastwest;" parent="ta5v3G1cMSPn4KrArI0O-53" vertex="1">
                    <mxGeometry y="38" width="260" height="42" as="geometry"/>
                </mxCell>
                <mxCell id="dEqsap9X3xDFd9PiGFJk-34" value="&lt;b&gt;App&lt;/b&gt;" style="swimlane;fontStyle=4;align=center;verticalAlign=top;childLayout=stackLayout;horizontal=1;startSize=30;horizontalStack=0;resizeParent=1;resizeParentMax=0;resizeLast=0;collapsible=0;marginBottom=0;html=1;" parent="1" vertex="1">
                    <mxGeometry x="55" y="650" width="190" height="98" as="geometry"/>
                </mxCell>
                <mxCell id="dEqsap9X3xDFd9PiGFJk-40" value="" style="line;strokeWidth=1;fillColor=none;align=left;verticalAlign=middle;spacingTop=-1;spacingLeft=3;spacingRight=3;rotatable=0;labelPosition=right;points=[];portConstraint=eastwest;" parent="dEqsap9X3xDFd9PiGFJk-34" vertex="1">
                    <mxGeometry y="30" width="190" height="8" as="geometry"/>
                </mxCell>
                <mxCell id="dEqsap9X3xDFd9PiGFJk-42" value="&lt;u&gt;+mainMenu(scanner: IScanner)&lt;/u&gt;" style="text;html=1;strokeColor=none;fillColor=none;align=left;verticalAlign=middle;spacingLeft=4;spacingRight=4;overflow=hidden;rotatable=0;points=[[0,0.5],[1,0.5]];portConstraint=eastwest;" parent="dEqsap9X3xDFd9PiGFJk-34" vertex="1">
                    <mxGeometry y="38" width="190" height="20" as="geometry"/>
                </mxCell>
                <mxCell id="dEqsap9X3xDFd9PiGFJk-43" value="&lt;u&gt;+pauseMenu(scanner: IScanner)&lt;/u&gt;" style="text;html=1;strokeColor=none;fillColor=none;align=left;verticalAlign=middle;spacingLeft=4;spacingRight=4;overflow=hidden;rotatable=0;points=[[0,0.5],[1,0.5]];portConstraint=eastwest;" parent="dEqsap9X3xDFd9PiGFJk-34" vertex="1">
                    <mxGeometry y="58" width="190" height="20" as="geometry"/>
                </mxCell>
                <mxCell id="dEqsap9X3xDFd9PiGFJk-44" value="&lt;u&gt;+clearScreen()&lt;/u&gt;" style="text;html=1;strokeColor=none;fillColor=none;align=left;verticalAlign=middle;spacingLeft=4;spacingRight=4;overflow=hidden;rotatable=0;points=[[0,0.5],[1,0.5]];portConstraint=eastwest;" parent="dEqsap9X3xDFd9PiGFJk-34" vertex="1">
                    <mxGeometry y="78" width="190" height="20" as="geometry"/>
                </mxCell>
                <mxCell id="dEqsap9X3xDFd9PiGFJk-70" value="" style="edgeStyle=orthogonalEdgeStyle;rounded=0;orthogonalLoop=1;jettySize=auto;html=1;exitX=0.5;exitY=0;exitDx=0;exitDy=0;" parent="1" source="dEqsap9X3xDFd9PiGFJk-34" edge="1">
                    <mxGeometry relative="1" as="geometry">
                        <mxPoint x="150" y="431" as="targetPoint"/>
                    </mxGeometry>
                </mxCell>
                <mxCell id="dEqsap9X3xDFd9PiGFJk-71" value="uses" style="edgeLabel;html=1;align=center;verticalAlign=middle;resizable=0;points=[];" parent="dEqsap9X3xDFd9PiGFJk-70" vertex="1" connectable="0">
                    <mxGeometry x="-0.1287" relative="1" as="geometry">
                        <mxPoint x="20" y="14" as="offset"/>
                    </mxGeometry>
                </mxCell>
                <mxCell id="dEqsap9X3xDFd9PiGFJk-73" value="1" style="edgeLabel;html=1;align=center;verticalAlign=middle;resizable=0;points=[];" parent="dEqsap9X3xDFd9PiGFJk-70" vertex="1" connectable="0">
                    <mxGeometry x="-0.8482" y="1" relative="1" as="geometry">
                        <mxPoint x="9" as="offset"/>
                    </mxGeometry>
                </mxCell>
                <mxCell id="dEqsap9X3xDFd9PiGFJk-74" value="1" style="edgeLabel;html=1;align=center;verticalAlign=middle;resizable=0;points=[];" parent="dEqsap9X3xDFd9PiGFJk-70" vertex="1" connectable="0">
                    <mxGeometry x="0.8779" relative="1" as="geometry">
                        <mxPoint x="10" as="offset"/>
                    </mxGeometry>
                </mxCell>
                <mxCell id="dEqsap9X3xDFd9PiGFJk-50" value="ScannerV3" style="swimlane;fontStyle=1;align=center;verticalAlign=top;childLayout=stackLayout;horizontal=1;startSize=26;horizontalStack=0;resizeParent=1;resizeParentMax=0;resizeLast=0;collapsible=1;marginBottom=0;" parent="1" vertex="1">
                    <mxGeometry x="70" y="290" width="160" height="138" as="geometry"/>
                </mxCell>
                <mxCell id="dEqsap9X3xDFd9PiGFJk-51" value="+ scanner: Scanner" style="text;strokeColor=none;fillColor=none;align=left;verticalAlign=top;spacingLeft=4;spacingRight=4;overflow=hidden;rotatable=0;points=[[0,0.5],[1,0.5]];portConstraint=eastwest;" parent="dEqsap9X3xDFd9PiGFJk-50" vertex="1">
                    <mxGeometry y="26" width="160" height="26" as="geometry"/>
                </mxCell>
                <mxCell id="dEqsap9X3xDFd9PiGFJk-52" value="" style="line;strokeWidth=1;fillColor=none;align=left;verticalAlign=middle;spacingTop=-1;spacingLeft=3;spacingRight=3;rotatable=0;labelPosition=right;points=[];portConstraint=eastwest;" parent="dEqsap9X3xDFd9PiGFJk-50" vertex="1">
                    <mxGeometry y="52" width="160" height="8" as="geometry"/>
                </mxCell>
                <mxCell id="dEqsap9X3xDFd9PiGFJk-53" value="- ScannerV3" style="text;strokeColor=none;fillColor=none;align=left;verticalAlign=top;spacingLeft=4;spacingRight=4;overflow=hidden;rotatable=0;points=[[0,0.5],[1,0.5]];portConstraint=eastwest;" parent="dEqsap9X3xDFd9PiGFJk-50" vertex="1">
                    <mxGeometry y="60" width="160" height="26" as="geometry"/>
                </mxCell>
                <mxCell id="dEqsap9X3xDFd9PiGFJk-54" value="+ nextInt(): int" style="text;strokeColor=none;fillColor=none;align=left;verticalAlign=top;spacingLeft=4;spacingRight=4;overflow=hidden;rotatable=0;points=[[0,0.5],[1,0.5]];portConstraint=eastwest;" parent="dEqsap9X3xDFd9PiGFJk-50" vertex="1">
                    <mxGeometry y="86" width="160" height="26" as="geometry"/>
                </mxCell>
                <mxCell id="dEqsap9X3xDFd9PiGFJk-55" value="+ nextLine(): String" style="text;strokeColor=none;fillColor=none;align=left;verticalAlign=top;spacingLeft=4;spacingRight=4;overflow=hidden;rotatable=0;points=[[0,0.5],[1,0.5]];portConstraint=eastwest;" parent="dEqsap9X3xDFd9PiGFJk-50" vertex="1">
                    <mxGeometry y="112" width="160" height="26" as="geometry"/>
                </mxCell>
                <mxCell id="dEqsap9X3xDFd9PiGFJk-58" value="&lt;&lt;Interface&gt;&gt;&#10;IScanner" style="swimlane;fontStyle=0;childLayout=stackLayout;horizontal=1;startSize=26;fillColor=none;horizontalStack=0;resizeParent=1;resizeParentMax=0;resizeLast=0;collapsible=1;marginBottom=0;" parent="1" vertex="1">
                    <mxGeometry x="80" y="160" width="140" height="78" as="geometry"/>
                </mxCell>
                <mxCell id="dEqsap9X3xDFd9PiGFJk-59" value="+ nextInt(): int" style="text;strokeColor=none;fillColor=none;align=left;verticalAlign=top;spacingLeft=4;spacingRight=4;overflow=hidden;rotatable=0;points=[[0,0.5],[1,0.5]];portConstraint=eastwest;" parent="dEqsap9X3xDFd9PiGFJk-58" vertex="1">
                    <mxGeometry y="26" width="140" height="26" as="geometry"/>
                </mxCell>
                <mxCell id="dEqsap9X3xDFd9PiGFJk-60" value="+ nextLine(): String" style="text;strokeColor=none;fillColor=none;align=left;verticalAlign=top;spacingLeft=4;spacingRight=4;overflow=hidden;rotatable=0;points=[[0,0.5],[1,0.5]];portConstraint=eastwest;" parent="dEqsap9X3xDFd9PiGFJk-58" vertex="1">
                    <mxGeometry y="52" width="140" height="26" as="geometry"/>
                </mxCell>
                <mxCell id="dEqsap9X3xDFd9PiGFJk-61" value="" style="endArrow=block;dashed=1;endFill=0;endSize=12;html=1;entryX=0.529;entryY=1.192;entryDx=0;entryDy=0;entryPerimeter=0;exitX=0.5;exitY=0;exitDx=0;exitDy=0;" parent="1" source="dEqsap9X3xDFd9PiGFJk-50" target="dEqsap9X3xDFd9PiGFJk-60" edge="1">
                    <mxGeometry width="160" relative="1" as="geometry">
                        <mxPoint x="60" y="260" as="sourcePoint"/>
                        <mxPoint x="149.5" y="292" as="targetPoint"/>
                        <Array as="points"/>
                    </mxGeometry>
                </mxCell>
                <mxCell id="dEqsap9X3xDFd9PiGFJk-75" value="implements" style="text;html=1;strokeColor=none;fillColor=none;align=center;verticalAlign=middle;whiteSpace=wrap;rounded=0;" parent="1" vertex="1">
                    <mxGeometry x="160" y="250" width="60" height="30" as="geometry"/>
                </mxCell>
                <mxCell id="dEqsap9X3xDFd9PiGFJk-76" value="" style="edgeStyle=orthogonalEdgeStyle;rounded=0;orthogonalLoop=1;jettySize=auto;html=1;exitX=1.005;exitY=0.2;exitDx=0;exitDy=0;exitPerimeter=0;entryX=0;entryY=0.5;entryDx=0;entryDy=0;" parent="1" source="dEqsap9X3xDFd9PiGFJk-42" target="ta5v3G1cMSPn4KrArI0O-11" edge="1">
                    <mxGeometry relative="1" as="geometry">
                        <mxPoint x="160" y="438" as="sourcePoint"/>
                        <mxPoint x="340" y="400" as="targetPoint"/>
                        <Array as="points">
                            <mxPoint x="340" y="692"/>
                            <mxPoint x="340" y="405"/>
                        </Array>
                    </mxGeometry>
                </mxCell>
                <mxCell id="dEqsap9X3xDFd9PiGFJk-77" value="calls" style="edgeLabel;html=1;align=center;verticalAlign=middle;resizable=0;points=[];" parent="dEqsap9X3xDFd9PiGFJk-76" vertex="1" connectable="0">
                    <mxGeometry x="-0.1287" relative="1" as="geometry">
                        <mxPoint x="20" y="-28" as="offset"/>
                    </mxGeometry>
                </mxCell>
                <mxCell id="dEqsap9X3xDFd9PiGFJk-78" value="1" style="edgeLabel;html=1;align=center;verticalAlign=middle;resizable=0;points=[];" parent="dEqsap9X3xDFd9PiGFJk-76" vertex="1" connectable="0">
                    <mxGeometry x="-0.8482" y="1" relative="1" as="geometry">
                        <mxPoint x="9" as="offset"/>
                    </mxGeometry>
                </mxCell>
                <mxCell id="dEqsap9X3xDFd9PiGFJk-79" value="1" style="edgeLabel;html=1;align=center;verticalAlign=middle;resizable=0;points=[];" parent="dEqsap9X3xDFd9PiGFJk-76" vertex="1" connectable="0">
                    <mxGeometry x="0.8779" relative="1" as="geometry">
                        <mxPoint x="10" as="offset"/>
                    </mxGeometry>
                </mxCell>
                <mxCell id="dEqsap9X3xDFd9PiGFJk-80" value="" style="edgeStyle=orthogonalEdgeStyle;rounded=0;orthogonalLoop=1;jettySize=auto;html=1;exitX=1;exitY=0.5;exitDx=0;exitDy=0;entryX=0.5;entryY=0;entryDx=0;entryDy=0;" parent="1" source="dEqsap9X3xDFd9PiGFJk-42" target="ta5v3G1cMSPn4KrArI0O-29" edge="1">
                    <mxGeometry relative="1" as="geometry">
                        <mxPoint x="255.95000000000005" y="702" as="sourcePoint"/>
                        <mxPoint x="424" y="415" as="targetPoint"/>
                        <Array as="points">
                            <mxPoint x="245" y="702"/>
                            <mxPoint x="440" y="702"/>
                        </Array>
                    </mxGeometry>
                </mxCell>
                <mxCell id="dEqsap9X3xDFd9PiGFJk-81" value="calls" style="edgeLabel;html=1;align=center;verticalAlign=middle;resizable=0;points=[];" parent="dEqsap9X3xDFd9PiGFJk-80" vertex="1" connectable="0">
                    <mxGeometry x="-0.1287" relative="1" as="geometry">
                        <mxPoint x="20" y="18" as="offset"/>
                    </mxGeometry>
                </mxCell>
                <mxCell id="dEqsap9X3xDFd9PiGFJk-82" value="1" style="edgeLabel;html=1;align=center;verticalAlign=middle;resizable=0;points=[];" parent="dEqsap9X3xDFd9PiGFJk-80" vertex="1" connectable="0">
                    <mxGeometry x="-0.8482" y="1" relative="1" as="geometry">
                        <mxPoint x="9" as="offset"/>
                    </mxGeometry>
                </mxCell>
                <mxCell id="dEqsap9X3xDFd9PiGFJk-83" value="1" style="edgeLabel;html=1;align=center;verticalAlign=middle;resizable=0;points=[];" parent="dEqsap9X3xDFd9PiGFJk-80" vertex="1" connectable="0">
                    <mxGeometry x="0.8779" relative="1" as="geometry">
                        <mxPoint x="10" as="offset"/>
                    </mxGeometry>
                </mxCell>
                <mxCell id="dEqsap9X3xDFd9PiGFJk-84" value="Extends" style="endArrow=block;endSize=16;endFill=0;html=1;exitX=0;exitY=0.25;exitDx=0;exitDy=0;entryX=1;entryY=0.5;entryDx=0;entryDy=0;" parent="1" source="ta5v3G1cMSPn4KrArI0O-45" target="dEqsap9X3xDFd9PiGFJk-9" edge="1">
                    <mxGeometry width="160" relative="1" as="geometry">
                        <mxPoint x="660" y="850" as="sourcePoint"/>
                        <mxPoint x="650" y="910" as="targetPoint"/>
                    </mxGeometry>
                </mxCell>
                <mxCell id="dEqsap9X3xDFd9PiGFJk-85" value="Extends" style="endArrow=block;endSize=16;endFill=0;html=1;exitX=0;exitY=0.25;exitDx=0;exitDy=0;entryX=1;entryY=0.5;entryDx=0;entryDy=0;" parent="1" source="ta5v3G1cMSPn4KrArI0O-53" target="dEqsap9X3xDFd9PiGFJk-14" edge="1">
                    <mxGeometry width="160" relative="1" as="geometry">
                        <mxPoint x="610" y="860" as="sourcePoint"/>
                        <mxPoint x="650" y="1060" as="targetPoint"/>
                    </mxGeometry>
                </mxCell>
            </root>
        </mxGraphModel>
    </diagram>
</mxfile>